<?xml version="1.0" encoding="UTF-8"?>
<svg version="1.1" xmlns="http://www.w3.org/2000/svg" width="400" height="400">
<path d="M0 0 C10.50748195 5.71233705 16.51426349 16.75758347 19.88330078 27.94628906 C21.82019719 34.89815901 23.37326697 41.8513085 24.30078125 49.01171875 C25.39132813 48.41423828 25.39132813 48.41423828 26.50390625 47.8046875 C42.03046443 39.62338569 58.93933802 37.10667022 76.05078125 41.76171875 C81.07034392 43.41912152 85.65335328 45.50925754 90.30078125 48.01171875 C90.96078125 48.01171875 91.62078125 48.01171875 92.30078125 48.01171875 C92.45933594 47.01914063 92.61789063 46.0265625 92.78125 45.00390625 C95.45689057 29.09202753 99.54361557 13.21617871 112.2734375 2.38671875 C117.99211361 -1.49184385 123.58988206 -1.62175846 130.30078125 -0.98828125 C139.37350561 2.26420484 144.09191082 8.71320934 148.30078125 17.01171875 C156.94202264 35.86533633 157.15284895 58.27531064 154.4453125 78.5 C154.05794456 82.31924016 154.05794456 82.31924016 155.21533203 85.86376953 C156.61892759 87.43207011 158.06949542 88.66843725 159.73828125 89.94921875 C160.86210184 90.93751062 161.9766091 91.93648377 163.08203125 92.9453125 C163.63246094 93.44659668 164.18289063 93.94788086 164.75 94.46435547 C176.78907857 106.47689955 182.21395729 126.069032 182.67578125 142.57421875 C182.31149577 154.06322247 179.53385722 163.65902682 173.90625 173.5949707 C172.36177311 176.39718466 171.27405711 178.40953472 171.41796875 181.65234375 C172.38561908 184.23845348 173.48850299 186.70593441 174.67578125 189.19921875 C183.43001272 209.87950468 182.32791754 235.35127065 174.30078125 256.01171875 C173.35317994 257.59356115 172.3761032 259.15832118 171.36328125 260.69921875 C169.89999944 263.17692292 169.24503845 264.40887071 169.51171875 267.29296875 C170.3080721 269.93035405 171.29297948 272.44770011 172.30078125 275.01171875 C173.03382467 277.4001075 173.74111266 279.79651561 174.42578125 282.19921875 C174.92464844 283.89111328 174.92464844 283.89111328 175.43359375 285.6171875 C177.11654662 292.20496246 177.4828539 298.56717252 177.48828125 305.32421875 C177.50052734 306.11505859 177.51277344 306.90589844 177.52539062 307.72070312 C177.54054163 313.93766428 176.56711684 318.6800408 175.30078125 325.01171875 C98.08078125 325.01171875 20.86078125 325.01171875 -58.69921875 325.01171875 C-60.63760385 318.2273709 -61.08468047 313.06342668 -61.07421875 306.13671875 C-61.07260742 305.02989746 -61.07099609 303.92307617 -61.06933594 302.78271484 C-60.89528893 291.02430407 -58.78378188 280.7628609 -54.13671875 269.94921875 C-52.73898255 266.49352803 -52.73898255 266.49352803 -53.421875 262.98828125 C-54.68811236 261.04086294 -54.68811236 261.04086294 -56.1875 259.16015625 C-63.15875128 249.25269319 -64.08092765 234.55261945 -64.01171875 222.82421875 C-64.0068042 221.82608154 -64.00188965 220.82794434 -63.99682617 219.79956055 C-63.80558719 207.59655221 -61.94026126 196.64985947 -56.78515625 185.46484375 C-55.38757347 182.33348374 -55.38757347 182.33348374 -54.69921875 179.01171875 C-55.52593084 177.18321497 -55.52593084 177.18321497 -56.88671875 175.44921875 C-66.03997454 161.7956122 -67.90221696 143.87194872 -65.08203125 127.9375 C-61.41241897 112.65827367 -53.59627084 96.29506528 -40.57421875 86.94921875 C-38.93580609 85.70120702 -38.93580609 85.70120702 -37.69921875 84.01171875 C-37.56213947 82.02039535 -37.56213947 82.02039535 -38.00390625 79.80859375 C-38.85257112 73.34644971 -38.92112957 66.91657559 -38.93945312 60.40942383 C-38.94912237 58.34479895 -38.98023512 56.2811883 -39.01171875 54.21679688 C-39.14675636 37.25587092 -36.01944154 19.33272511 -24.69921875 6.01171875 C-17.48390857 -0.4902908 -9.58561392 -3.50963867 0 0 Z " fill="#FBFCFD" transform="translate(141.69921875,37.98828125)"/>
<path d="M0 0 C10.50748195 5.71233705 16.51426349 16.75758347 19.88330078 27.94628906 C21.82019719 34.89815901 23.37326697 41.8513085 24.30078125 49.01171875 C25.39132813 48.41423828 25.39132813 48.41423828 26.50390625 47.8046875 C42.03046443 39.62338569 58.93933802 37.10667022 76.05078125 41.76171875 C81.07034392 43.41912152 85.65335328 45.50925754 90.30078125 48.01171875 C90.96078125 48.01171875 91.62078125 48.01171875 92.30078125 48.01171875 C92.45933594 47.01914063 92.61789063 46.0265625 92.78125 45.00390625 C95.45689057 29.09202753 99.54361557 13.21617871 112.2734375 2.38671875 C117.99211361 -1.49184385 123.58988206 -1.62175846 130.30078125 -0.98828125 C139.37350561 2.26420484 144.09191082 8.71320934 148.30078125 17.01171875 C156.94202264 35.86533633 157.15284895 58.27531064 154.4453125 78.5 C154.05794456 82.31924016 154.05794456 82.31924016 155.21533203 85.86376953 C156.61892759 87.43207011 158.06949542 88.66843725 159.73828125 89.94921875 C160.86210184 90.93751062 161.9766091 91.93648377 163.08203125 92.9453125 C163.63246094 93.44659668 164.18289063 93.94788086 164.75 94.46435547 C176.78907857 106.47689955 182.21395729 126.069032 182.67578125 142.57421875 C182.31149577 154.06322247 179.53385722 163.65902682 173.90625 173.5949707 C172.36177311 176.39718466 171.27405711 178.40953472 171.41796875 181.65234375 C172.38561908 184.23845348 173.48850299 186.70593441 174.67578125 189.19921875 C183.43001272 209.87950468 182.32791754 235.35127065 174.30078125 256.01171875 C173.35317994 257.59356115 172.3761032 259.15832118 171.36328125 260.69921875 C169.89999944 263.17692292 169.24503845 264.40887071 169.51171875 267.29296875 C170.3080721 269.93035405 171.29297948 272.44770011 172.30078125 275.01171875 C173.03382467 277.4001075 173.74111266 279.79651561 174.42578125 282.19921875 C174.92464844 283.89111328 174.92464844 283.89111328 175.43359375 285.6171875 C177.11654662 292.20496246 177.4828539 298.56717252 177.48828125 305.32421875 C177.50052734 306.11505859 177.51277344 306.90589844 177.52539062 307.72070312 C177.54054163 313.93766428 176.56711684 318.6800408 175.30078125 325.01171875 C168.37078125 325.01171875 161.44078125 325.01171875 154.30078125 325.01171875 C154.96078125 322.04171875 155.62078125 319.07171875 156.30078125 316.01171875 C156.96078125 316.01171875 157.62078125 316.01171875 158.30078125 316.01171875 C158.13004003 300.13278547 156.4266434 286.35966322 149.48828125 271.94921875 C147.22972263 267.19473706 146.33981958 264.25332784 147.30078125 259.01171875 C148.6088283 257.17092405 150.06294475 255.62243211 151.63671875 254.00390625 C159.13396714 245.02832719 159.50481994 234.65664005 159.55078125 223.57421875 C159.57140625 222.36572266 159.59203125 221.15722656 159.61328125 219.91210938 C159.66811002 207.11644505 157.6443162 196.60768283 150.30078125 186.01171875 C148.19285469 182.84982891 147.76224976 180.88893321 147.8515625 177.1171875 C148.54047449 173.88828694 150.39562436 172.18929292 152.640625 169.859375 C160.90956449 160.65653175 161.90304666 149.88136621 161.30078125 138.01171875 C159.89362261 122.49779475 154.66480146 110.77932105 142.62109375 100.6484375 C136.32492857 96.20720314 128.66537924 91.72143179 120.80859375 92.08984375 C119.93847656 92.115625 119.06835938 92.14140625 118.171875 92.16796875 C116.34834734 92.23022289 114.52528612 92.30822926 112.703125 92.40234375 C108.115065 92.51077648 106.02301727 92.55850155 102.26171875 89.7109375 C100.02349136 86.63003087 98.77615297 83.51572659 97.30078125 80.01171875 C93.7659041 74.87007925 89.53086198 71.90975648 84.3125 68.52734375 C83.64863281 68.0271875 82.98476562 67.52703125 82.30078125 67.01171875 C82.30078125 66.35171875 82.30078125 65.69171875 82.30078125 65.01171875 C81.60210937 64.88925781 80.9034375 64.76679687 80.18359375 64.640625 C77.07778271 63.96307002 74.18219138 62.97967136 71.17578125 61.94921875 C59.60180407 58.38599432 48.14280828 59.40553114 37.08984375 64.48828125 C27.00489637 70.05151419 20.65864798 76.3356491 15.625 86.69140625 C14.30078125 89.01171875 14.30078125 89.01171875 11.30078125 91.01171875 C9.19116211 91.26708984 9.19116211 91.26708984 6.765625 91.28515625 C5.43446655 91.31186401 5.43446655 91.31186401 4.07641602 91.33911133 C3.13983154 91.35482178 2.20324707 91.37053223 1.23828125 91.38671875 C-6.40802593 91.6321206 -12.96443281 92.04173967 -19.69921875 96.01171875 C-20.73046875 96.60984375 -21.76171875 97.20796875 -22.82421875 97.82421875 C-24.24734375 98.90703125 -24.24734375 98.90703125 -25.69921875 100.01171875 C-26.32441406 100.46933594 -26.94960937 100.92695313 -27.59375 101.3984375 C-37.48139576 109.20646369 -43.3591345 121.77959296 -45.69921875 134.01171875 C-47.4114126 148.69189136 -44.14987306 159.01724166 -35.69921875 171.01171875 C-34.97992188 171.87925781 -34.260625 172.74679688 -33.51953125 173.640625 C-31.69921875 176.01171875 -31.69921875 176.01171875 -31.01171875 179.19921875 C-31.87230192 183.9715436 -34.00348586 186.44334673 -36.87890625 190.26171875 C-45.3413057 203.0461162 -45.01898839 221.10684245 -43.23828125 235.8203125 C-41.58443394 243.92416432 -38.53892192 252.22776445 -32.546875 258.1328125 C-30.69921875 260.01171875 -30.69921875 260.01171875 -30.07421875 263.01171875 C-30.2758756 266.66481012 -31.76569241 269.36526373 -33.44921875 272.57421875 C-41.19764911 287.44679835 -43.6234821 304.43962623 -39.19921875 320.82421875 C-38.70421875 322.20609375 -38.20921875 323.58796875 -37.69921875 325.01171875 C-44.62921875 325.01171875 -51.55921875 325.01171875 -58.69921875 325.01171875 C-60.63760385 318.2273709 -61.08468047 313.06342668 -61.07421875 306.13671875 C-61.07260742 305.02989746 -61.07099609 303.92307617 -61.06933594 302.78271484 C-60.89528893 291.02430407 -58.78378188 280.7628609 -54.13671875 269.94921875 C-52.73898255 266.49352803 -52.73898255 266.49352803 -53.421875 262.98828125 C-54.68811236 261.04086294 -54.68811236 261.04086294 -56.1875 259.16015625 C-63.15875128 249.25269319 -64.08092765 234.55261945 -64.01171875 222.82421875 C-64.0068042 221.82608154 -64.00188965 220.82794434 -63.99682617 219.79956055 C-63.80558719 207.59655221 -61.94026126 196.64985947 -56.78515625 185.46484375 C-55.38757347 182.33348374 -55.38757347 182.33348374 -54.69921875 179.01171875 C-55.52593084 177.18321497 -55.52593084 177.18321497 -56.88671875 175.44921875 C-66.03997454 161.7956122 -67.90221696 143.87194872 -65.08203125 127.9375 C-61.41241897 112.65827367 -53.59627084 96.29506528 -40.57421875 86.94921875 C-38.93580609 85.70120702 -38.93580609 85.70120702 -37.69921875 84.01171875 C-37.56213947 82.02039535 -37.56213947 82.02039535 -38.00390625 79.80859375 C-38.85257112 73.34644971 -38.92112957 66.91657559 -38.93945312 60.40942383 C-38.94912237 58.34479895 -38.98023512 56.2811883 -39.01171875 54.21679688 C-39.14675636 37.25587092 -36.01944154 19.33272511 -24.69921875 6.01171875 C-17.48390857 -0.4902908 -9.58561392 -3.50963867 0 0 Z " fill="#0B0C0C" transform="translate(141.69921875,37.98828125)"/>
<path d="M0 0 C9.31208311 6.7205713 17.44988581 14.46088108 19.625 26.25 C20.53298302 38.06866417 19.19306354 46.35002001 11.5 55.5 C7.0646941 60.13130141 2.41078157 63.50393632 -3.375 66.25 C-4.01856445 66.5912793 -4.66212891 66.93255859 -5.32519531 67.28417969 C-12.71493483 70.7964133 -19.98895968 70.86214328 -27.99658203 70.77148438 C-30.23971471 70.75009806 -32.47962256 70.77133575 -34.72265625 70.796875 C-47.93272024 70.8234113 -59.18210305 68.20632366 -69.375 59.25 C-72.05566284 56.43556128 -74.2761093 53.51803407 -76.375 50.25 C-76.80941406 49.58613281 -77.24382812 48.92226562 -77.69140625 48.23828125 C-81.88755441 40.56240047 -81.55240178 30.71755952 -79.75 22.34765625 C-75.12953943 9.29072974 -64.44617178 1.05525725 -52.45703125 -4.92578125 C-35.9721683 -11.45168385 -14.86861739 -9.38292874 0 0 Z " fill="#F8F9FA" transform="translate(230.375,181.75)"/>
<path d="M0 0 C9.31208311 6.7205713 17.44988581 14.46088108 19.625 26.25 C20.53298302 38.06866417 19.19306354 46.35002001 11.5 55.5 C7.0646941 60.13130141 2.41078157 63.50393632 -3.375 66.25 C-4.01856445 66.5912793 -4.66212891 66.93255859 -5.32519531 67.28417969 C-12.71493483 70.7964133 -19.98895968 70.86214328 -27.99658203 70.77148438 C-30.23971471 70.75009806 -32.47962256 70.77133575 -34.72265625 70.796875 C-47.93272024 70.8234113 -59.18210305 68.20632366 -69.375 59.25 C-72.05566284 56.43556128 -74.2761093 53.51803407 -76.375 50.25 C-76.80941406 49.58613281 -77.24382812 48.92226562 -77.69140625 48.23828125 C-81.88755441 40.56240047 -81.55240178 30.71755952 -79.75 22.34765625 C-75.12953943 9.29072974 -64.44617178 1.05525725 -52.45703125 -4.92578125 C-35.9721683 -11.45168385 -14.86861739 -9.38292874 0 0 Z M-61.875 16.75 C-66.84814344 22.88490236 -69.03455537 27.45672817 -68.78515625 35.4375 C-67.75910719 42.47326495 -63.70155966 47.74512277 -58.1875 52.03515625 C-48.67001101 58.41433529 -37.28888865 57.38836021 -26.3125 57.3125 C-25.06533203 57.30798828 -23.81816406 57.30347656 -22.53320312 57.29882812 C-19.48041779 57.28713163 -16.42773502 57.27074086 -13.375 57.25 C-13.375 56.59 -13.375 55.93 -13.375 55.25 C-12.570625 55.20875 -11.76625 55.1675 -10.9375 55.125 C-4.31845198 53.49926891 0.98905492 49.90382044 4.6875 44.125 C7.64605335 38.03325648 7.83342003 31.42971162 5.9609375 24.953125 C1.52374413 14.99837813 -7.91271787 8.98404244 -17.625 4.875 C-33.69708695 2.19631884 -50.42464857 4.33673053 -61.875 16.75 Z " fill="#0A0A0A" transform="translate(230.375,181.75)"/>
<path d="M0 0 C3 0 3 0 4.4296875 1.40625 C12.35381088 12.88552063 15.16490875 26.80962726 15.25 40.5625 C15.270625 41.39974609 15.29125 42.23699219 15.3125 43.09960938 C15.33547235 46.72636903 15.13931829 49.58576739 13.9765625 53.04296875 C11.05004519 55.9405679 8.02927102 55.74296528 4.125 55.75 C-0.35921092 55.8561835 -4.59558071 56.09567056 -9 57 C-11.65103324 54.34896676 -10.23011451 46.77523766 -10.24023438 42.96679688 C-10.24977812 40.80036564 -10.28070255 38.63495147 -10.3125 36.46875 C-10.40740936 24.16564919 -9.20951199 12.39787704 -2 2 C-1.34 1.34 -0.68 0.68 0 0 Z " fill="#F1F2F3" transform="translate(132,56)"/>
<path d="M0 0 C0.99 0 1.98 0 3 0 C7.69101667 6.15695937 10.41344381 12.33243169 11.6875 19.9375 C11.81415039 20.67895264 11.94080078 21.42040527 12.07128906 22.18432617 C13.8530221 33.45702933 13.1799643 44.68498517 12 56 C6.98101155 56.19682308 2.17374358 55.88582972 -2.8125 55.25 C-3.91207031 55.11078125 -5.01164062 54.9715625 -6.14453125 54.828125 C-9 54 -9 54 -10.86328125 52.51171875 C-12.63766887 48.59099283 -12.4431856 44.81602015 -12.375 40.5625 C-12.36557373 39.66595703 -12.35614746 38.76941406 -12.34643555 37.84570312 C-12.05430518 24.89420222 -9.17304206 9.75629907 0 0 Z " fill="#F5F6F6" transform="translate(265,56)"/>
<path d="M0 0 C4.48813136 0.97568073 7.4516493 4.17385823 10.42578125 7.52734375 C12.16799836 11.01177797 12.01253279 14.7262142 11.42578125 18.52734375 C9.72326406 21.60203898 7.61351617 23.93347629 4.42578125 25.52734375 C0.61664018 26.196944 -2.77881091 26.32500501 -6.57421875 25.52734375 C-10.56863372 22.56573128 -13.01081802 18.95700938 -14.13671875 14.1015625 C-14.35056544 10.12535062 -13.87446888 8.01395604 -11.76171875 4.58984375 C-7.82356168 0.87672423 -5.25968932 -0.07747497 0 0 Z " fill="#050505" transform="translate(263.57421875,175.47265625)"/>
<path d="M0 0 C0 0.66 0 1.32 0 2 C0.61875 2.28875 1.2375 2.5775 1.875 2.875 C4 4 4 4 6 6 C6.75752548 10.8974903 6.53344305 14.93311391 4.3125 19.375 C-1.39503961 25.85382874 -1.39503961 25.85382874 -5.14453125 26.1953125 C-9.48601878 25.95051884 -11.55748135 25.35954641 -15 22.5625 C-18.59578209 17.9554042 -18.23979159 14.7130445 -17.68359375 9 C-16.78143985 5.04083319 -15.46019276 3.24585609 -12.1875 0.9140625 C-8.19573225 -0.75392617 -4.23227251 -0.4598445 0 0 Z " fill="#080808" transform="translate(143,176)"/>
<path d="M0 0 C2.83393231 0.1667019 5.41359799 0.6327196 8.1875 1.1875 C8.5175 0.8575 8.8475 0.5275 9.1875 0.1875 C13.21910191 -0.07543056 14.74642734 -0.10654844 18.1875 2.1875 C18.625 4.5625 18.625 4.5625 18.1875 7.1875 C16.3125 9.5 16.3125 9.5 14.1875 11.1875 C13.5275 11.1875 12.8675 11.1875 12.1875 11.1875 C12.1875 14.8175 12.1875 18.4475 12.1875 22.1875 C11.5275 22.1875 10.8675 22.1875 10.1875 22.1875 C10.1875 22.8475 10.1875 23.5075 10.1875 24.1875 C6.8125 24.3125 6.8125 24.3125 3.1875 24.1875 C0.69334854 21.69334854 0.97278995 20.80794185 0.875 17.375 C0.49560713 12.29697234 -1.00474348 10.60471739 -4.8125 7.1875 C-5.25 4.5 -5.25 4.5 -4.8125 2.1875 C-2.8125 0.1875 -2.8125 0.1875 0 0 Z " fill="#121212" transform="translate(192.8125,202.8125)"/>
<path d="M0 0 C0.64916992 1.81591797 0.64916992 1.81591797 1 4 C-0.83314465 6.2621785 -2.58506669 8.14538925 -4.6875 10.125 C-5.23083984 10.66253906 -5.77417969 11.20007813 -6.33398438 11.75390625 C-9.03338199 14.37170176 -11.44608024 16.59918491 -15 18 C-13.52640603 14.66741055 -11.62902004 12.25610816 -9.1875 9.5625 C-8.47980469 8.78132812 -7.77210937 8.00015625 -7.04296875 7.1953125 C-4.75073802 4.7321506 -2.41644128 2.34092749 0 0 Z " fill="#545455" transform="translate(105,120)"/>
<path d="M0 0 C1.21236328 0.02707031 1.21236328 0.02707031 2.44921875 0.0546875 C3.37154297 0.08949219 3.37154297 0.08949219 4.3125 0.125 C4.3125 0.455 4.3125 0.785 4.3125 1.125 C2.518125 1.186875 2.518125 1.186875 0.6875 1.25 C-3.51095508 1.79438227 -5.75614569 3.16284113 -8.56640625 6.29296875 C-10.5214067 9.48772558 -10.55982669 12.42247415 -10.6875 16.125 C-11.0175 16.125 -11.3475 16.125 -11.6875 16.125 C-12.31377475 8.139997 -12.31377475 8.139997 -9.875 4.1875 C-6.50334774 1.00851358 -4.57313566 -0.13255466 0 0 Z " fill="#49494A" transform="translate(261.6875,175.875)"/>
<path d="M0 0 C0.66 0.33 1.32 0.66 2 1 C-1.96 4.96 -5.92 8.92 -10 13 C-10.66 12.67 -11.32 12.34 -12 12 C-8.27653164 7.57905197 -4.70478962 3.42166518 0 0 Z " fill="#C9C9CA" transform="translate(118,135)"/>
<path d="M0 0 C0.66 0.33 1.32 0.66 2 1 C-2.29 5.29 -6.58 9.58 -11 14 C-11 10.30159372 -10.17133056 9.68584567 -7.75 7 C-7.14671875 6.319375 -6.5434375 5.63875 -5.921875 4.9375 C-4.06233388 3.06284066 -2.15205789 1.52358081 0 0 Z " fill="#2B2B2C" transform="translate(167,183)"/>
<path d="M0 0 C2.02350324 3.03525486 2.32124018 4.19426202 2.625 7.6875 C2.69976562 8.49574219 2.77453125 9.30398437 2.8515625 10.13671875 C2.90054687 10.75160156 2.94953125 11.36648437 3 12 C2.690625 11.360625 2.38125 10.72125 2.0625 10.0625 C1.1654837 8.06389179 1.1654837 8.06389179 0 7 C-0.04092937 4.66702567 -0.04241723 2.33294775 0 0 Z " fill="#7F8080" transform="translate(319,156)"/>
</svg>
